<svg width="274" height="53" viewBox="0 0 274 53" fill="none" xmlns="http://www.w3.org/2000/svg">
<g clip-path="url(#clip0_499_1329)">
<path d="M12.4108 33.3905C10.9772 32.9887 9.62578 32.4102 8.35478 31.655C7.11169 30.9281 5.97534 30.0445 4.94573 29.0058C3.91447 27.9672 3.03429 26.8168 2.30355 25.5564C1.55802 24.2793 0.988205 22.9122 0.594095 21.4485C0.199985 19.988 0.00292969 18.4842 0.00292969 16.9404C0.00292969 15.3965 0.199985 13.8977 0.594095 12.444C0.988205 10.9902 1.55966 9.62473 2.30355 8.34933C3.04907 7.08894 3.93418 5.94191 4.95722 4.90992C5.98026 3.87793 7.11333 3.00599 8.35642 2.2941C9.62742 1.5522 10.9805 0.985352 12.4125 0.591895C13.8444 0.198438 15.3207 0.00170898 16.8413 0.00170898C18.756 0.00170898 20.495 0.265125 22.06 0.791957C23.6249 1.31879 25.0716 2.0807 26.4017 3.07434C26.6497 3.28274 26.7745 3.51948 26.7745 3.7879C26.7745 3.95128 26.7367 4.08466 26.6645 4.18802L24.3409 8.17261C24.1947 8.36601 24.0124 8.4627 23.7924 8.4627C23.5871 8.4627 23.3605 8.38101 23.1126 8.21763C22.0008 7.52074 21.0008 7.01558 20.1091 6.70382C19.1008 6.34704 18.0105 6.17031 16.8429 6.17031C15.3814 6.17031 14.0185 6.44373 12.754 6.99391C11.4896 7.54241 10.3894 8.30765 9.455 9.28796C8.51899 10.2816 7.79153 11.4353 7.27262 12.749C6.75371 14.0628 6.49425 15.4616 6.49425 16.9454C6.49425 18.4292 6.75371 19.8363 7.27262 21.1634C7.79153 22.4904 8.51899 23.6608 9.455 24.6695C10.4058 25.6798 11.5126 26.4684 12.777 27.0402C14.0415 27.6121 15.3962 27.8971 16.8446 27.8971C17.9842 27.8971 19.0877 27.7071 20.1551 27.3286C21.2225 26.9502 22.1716 26.45 23.0058 25.8265C23.3129 25.5898 23.5756 25.4697 23.7957 25.4697C24.0289 25.4697 24.2259 25.5814 24.3868 25.8032L26.6021 29.611C26.7778 29.8044 26.8648 29.9895 26.8648 30.1679C26.8648 30.4063 26.6973 30.6497 26.3607 30.9031C25.0306 31.8967 23.5871 32.662 22.0304 33.1955C20.4737 33.7306 18.7445 33.9974 16.8446 33.9974C15.324 33.9974 13.8477 33.7973 12.4158 33.3972L12.4108 33.3905Z" fill="white"/>
<path d="M43.0298 33.3789C41.6045 32.9854 40.271 32.4102 39.0296 31.655C36.5303 30.1395 34.5417 28.1072 33.0654 25.5548C32.3347 24.2944 31.7714 22.9356 31.3773 21.4801C30.9832 20.0263 30.7861 18.5275 30.7861 16.9837C30.7861 15.4399 30.9832 13.9428 31.3773 12.4873C31.7714 11.0335 32.3347 9.66809 33.0654 8.39268C33.7961 7.13229 34.6665 5.98192 35.6747 4.94326C36.683 3.90294 37.8013 3.02099 39.0296 2.2941C40.271 1.5522 41.6061 0.985352 43.0298 0.591895C44.4552 0.198438 45.9347 0.00170898 47.4701 0.00170898C49.0055 0.00170898 50.467 0.198438 51.8989 0.591895C53.3309 0.985352 54.6758 1.5522 55.932 2.2941C57.1751 3.036 58.3114 3.92628 59.341 4.96494C60.3723 6.00527 61.2443 7.14729 61.9602 8.39268C62.691 9.66975 63.2542 11.0335 63.6483 12.4873C64.0424 13.9428 64.2395 15.4399 64.2395 16.9837C64.2395 18.5275 64.0424 20.0263 63.6483 21.4801C63.2542 22.9356 62.691 24.2927 61.9602 25.5548C61.2443 26.8018 60.3739 27.9405 59.3509 28.9708C58.3279 30.0028 57.1882 30.8964 55.9303 31.6533C54.6889 32.4102 53.3473 32.9854 51.9071 33.3772C50.467 33.7707 48.9874 33.9674 47.4668 33.9674C45.9462 33.9674 44.4519 33.769 43.0265 33.3772L43.0298 33.3789ZM51.559 26.9118C52.8234 26.3633 53.9237 25.5914 54.8597 24.5961C55.7941 23.6175 56.5215 22.4738 57.0404 21.1684C57.5593 19.863 57.8188 18.4675 57.8188 16.9837C57.8188 15.4999 57.5593 14.1061 57.0404 12.7991C56.5215 11.4937 55.7941 10.3433 54.8597 9.34965C53.9237 8.36934 52.8234 7.60577 51.559 7.0556C50.2946 6.50709 48.9316 6.232 47.4701 6.232C46.0086 6.232 44.667 6.50209 43.4026 7.04393C42.1381 7.58576 41.0461 8.35434 40.1249 9.34798C39.1889 10.3416 38.4663 11.492 37.954 12.7974C37.4417 14.1045 37.1855 15.4983 37.1855 16.9821C37.1855 18.4659 37.4417 19.8613 37.954 21.1667C38.4647 22.4738 39.1889 23.6158 40.1249 24.5944C41.0461 25.5881 42.1349 26.36 43.3911 26.9102C44.6473 27.4587 46.007 27.7338 47.4701 27.7338C48.9333 27.7338 50.2946 27.4587 51.559 26.9102V26.9118Z" fill="white"/>
<path d="M69.8105 32.5444V1.40296C69.8105 1.1212 69.9058 0.887796 70.0963 0.702737C70.2868 0.517679 70.5282 0.424316 70.8205 0.424316H75.2936C75.893 0.424316 76.2148 0.751086 76.2592 1.40296V27.4478H89.0858C89.3633 27.4478 89.5932 27.5412 89.7755 27.7246C89.9578 27.9096 90.0497 28.1597 90.0497 28.4715V32.5444C90.0497 33.1529 89.7279 33.4797 89.0842 33.5247H70.7761C70.1324 33.5247 69.8105 33.198 69.8105 32.5444Z" fill="white"/>
<path d="M94.9805 32.5444V1.40296C94.9805 1.1212 95.0757 0.887796 95.2662 0.702737C95.4567 0.517679 95.6981 0.424316 95.9904 0.424316H100.464C101.063 0.424316 101.385 0.751086 101.429 1.40296V27.4478H114.256C114.533 27.4478 114.763 27.5412 114.945 27.7246C115.128 27.9096 115.22 28.1597 115.22 28.4715V32.5444C115.22 33.1529 114.898 33.4797 114.254 33.5247H95.946C95.3023 33.5247 94.9805 33.198 94.9805 32.5444Z" fill="white"/>
<path d="M120.15 32.6341V1.35762C120.15 0.779105 120.436 0.489014 121.006 0.489014H142.427C143.027 0.489014 143.325 0.779105 143.325 1.35762V5.67565C143.325 6.26917 143.025 6.56593 142.427 6.56593H126.553V13.3114H138.655C139.314 13.3114 139.642 13.6081 139.642 14.2017V18.4297C139.642 19.0082 139.314 19.2983 138.655 19.2983H126.553V27.4675H142.843C143.457 27.4675 143.764 27.7659 143.764 28.3578V32.6325C143.764 33.226 143.457 33.5227 142.843 33.5227H121.004C120.434 33.5227 120.148 33.226 120.148 32.6325L120.15 32.6341Z" fill="white"/>
<path d="M158.432 33.3905C156.999 32.9887 155.647 32.4102 154.376 31.655C153.133 30.9281 151.997 30.0445 150.967 29.0058C149.936 27.9672 149.056 26.8168 148.325 25.5564C147.58 24.2793 147.01 22.9122 146.616 21.4485C146.221 19.988 146.024 18.4842 146.024 16.9404C146.024 15.3965 146.221 13.8977 146.616 12.444C147.01 10.9902 147.581 9.62473 148.325 8.34933C149.071 7.08894 149.956 5.94191 150.979 4.90992C152.002 3.87793 153.135 3.00599 154.378 2.2941C155.649 1.5522 157.002 0.985352 158.434 0.591895C159.866 0.198438 161.342 0.00170898 162.863 0.00170898C164.777 0.00170898 166.516 0.265125 168.081 0.791957C169.646 1.31879 171.093 2.0807 172.423 3.07434C172.671 3.28274 172.796 3.51948 172.796 3.7879C172.796 3.95128 172.758 4.08466 172.686 4.18802L170.362 8.17261C170.216 8.36601 170.034 8.4627 169.814 8.4627C169.609 8.4627 169.382 8.38101 169.134 8.21763C168.022 7.52074 167.022 7.01558 166.131 6.70382C165.122 6.34704 164.032 6.17031 162.864 6.17031C161.403 6.17031 160.04 6.44373 158.776 6.99391C157.511 7.54241 156.411 8.30765 155.476 9.28796C154.54 10.2816 153.813 11.4353 153.294 12.749C152.775 14.0628 152.516 15.4616 152.516 16.9454C152.516 18.4292 152.775 19.8363 153.294 21.1634C153.813 22.4904 154.54 23.6608 155.476 24.6695C156.427 25.6798 157.534 26.4684 158.799 27.0402C160.063 27.6121 161.418 27.8971 162.866 27.8971C164.006 27.8971 165.109 27.7071 166.177 27.3286C167.244 26.9502 168.193 26.45 169.027 25.8265C169.334 25.5898 169.597 25.4697 169.817 25.4697C170.05 25.4697 170.247 25.5814 170.408 25.8032L172.624 29.611C172.799 29.8044 172.886 29.9895 172.886 30.1679C172.886 30.4063 172.719 30.6497 172.382 30.9031C171.052 31.8967 169.609 32.662 168.052 33.1955C166.495 33.7306 164.766 33.9974 162.866 33.9974C161.345 33.9974 159.869 33.7973 158.437 33.3972L158.432 33.3905Z" fill="white"/>
<path d="M184.962 32.6343V6.4344H176.784C176.214 6.4344 175.929 6.13764 175.929 5.54412V1.33614C175.929 0.75762 176.214 0.467529 176.784 0.467529H199.805C200.375 0.467529 200.661 0.75762 200.661 1.33614V5.54412C200.661 6.13764 200.375 6.4344 199.805 6.4344H191.386V32.6343C191.386 33.2278 191.1 33.5246 190.53 33.5246H185.816C185.246 33.5246 184.96 33.2278 184.96 32.6343H184.962Z" fill="white"/>
<path d="M205.352 32.6108V1.40268C205.352 0.795819 205.644 0.490723 206.228 0.490723H210.964C211.534 0.490723 211.82 0.795819 211.82 1.40268V32.6108C211.82 33.2194 211.534 33.5244 210.964 33.5244H206.228C205.644 33.5244 205.352 33.2194 205.352 32.6108Z" fill="white"/>
<path d="M228.834 32.7226L216.709 1.42445C216.65 1.29108 216.62 1.15104 216.62 1.00099C216.62 0.822599 216.679 0.689224 216.796 0.600863C216.912 0.510834 217.082 0.46582 217.3 0.46582H222.299C222.809 0.46582 223.169 0.747575 223.373 1.31275L231.77 24.3967L240.124 1.33443C240.314 0.755911 240.672 0.46582 241.198 0.46582H246.262C246.467 0.46582 246.632 0.514169 246.755 0.610866C246.878 0.707563 246.942 0.852609 246.942 1.04434C246.942 1.19272 246.912 1.33443 246.853 1.4678L234.751 32.721C234.516 33.2695 234.143 33.5446 233.633 33.5446H229.949C229.394 33.5446 229.021 33.2711 228.831 32.721L228.834 32.7226Z" fill="white"/>
<path d="M250.386 32.6341V1.35762C250.386 0.779105 250.672 0.489014 251.242 0.489014H272.663C273.263 0.489014 273.562 0.779105 273.562 1.35762V5.67565C273.562 6.26917 273.261 6.56593 272.663 6.56593H256.789V13.3114H268.892C269.55 13.3114 269.878 13.6081 269.878 14.2017V18.4297C269.878 19.0082 269.55 19.2983 268.892 19.2983H256.789V27.4675H273.079C273.693 27.4675 274 27.7659 274 28.3578V32.6325C274 33.226 273.693 33.5227 273.079 33.5227H251.24C250.67 33.5227 250.385 33.226 250.385 32.6325L250.386 32.6341Z" fill="white"/>
<path d="M3.69338 45.7253L6.45051 52.8623H5.73126L4.87571 50.6428H1.67521L0.829515 52.8623H0.120117L2.94621 45.7253H3.69338ZM4.64745 50.0625L3.28778 46.404L1.88047 50.0625H4.64745Z" fill="white"/>
<path d="M23.4705 45.7251C23.7595 45.7251 24.0338 45.7618 24.2932 45.8352C24.5527 45.9085 24.7793 46.0202 24.9731 46.1703C25.1668 46.3204 25.3212 46.5138 25.4361 46.7506C25.5511 46.9874 25.6086 47.2659 25.6086 47.586C25.6086 48.0379 25.4936 48.4315 25.2637 48.765C25.0338 49.0985 24.6923 49.3119 24.2407 49.4053V49.4253C24.4706 49.4587 24.6611 49.5204 24.8121 49.6104C24.9632 49.7004 25.0864 49.8155 25.1816 49.9556C25.2769 50.0956 25.3458 50.2574 25.3885 50.4408C25.4312 50.6243 25.4591 50.8227 25.4723 51.0345C25.4788 51.1545 25.4854 51.3013 25.492 51.4747C25.4985 51.6481 25.5117 51.8232 25.5314 51.9983C25.5511 52.175 25.5823 52.3418 25.625 52.4985C25.6677 52.6553 25.7252 52.777 25.7974 52.8637H25.0585C25.019 52.797 24.9878 52.7153 24.9649 52.6203C24.9419 52.5235 24.9254 52.4235 24.9156 52.3201C24.9057 52.2167 24.8975 52.115 24.891 52.015C24.8844 51.9149 24.8778 51.8282 24.8712 51.7548C24.8581 51.5014 24.8368 51.2496 24.8072 50.9994C24.7776 50.7493 24.7152 50.5259 24.62 50.3308C24.5248 50.134 24.3868 49.9756 24.2062 49.8555C24.0256 49.7355 23.7776 49.6821 23.4623 49.6954H20.9219V52.8637H20.252V45.7268H23.4705V45.7251ZM23.4229 49.1135C23.6265 49.1135 23.8186 49.0818 24.0042 49.0184C24.1881 48.9551 24.3491 48.8634 24.487 48.7433C24.6249 48.6249 24.735 48.4782 24.8171 48.3081C24.8992 48.1397 24.9402 47.9429 24.9402 47.7228C24.9402 47.2826 24.8154 46.9374 24.5658 46.6822C24.3162 46.4305 23.9352 46.3037 23.4245 46.3037H20.9236V49.1118H23.4245L23.4229 49.1135Z" fill="white"/>
<path d="M44.8516 45.7251V46.3054H42.3999V52.8621H41.7299V46.3054H39.2881V45.7251H44.85H44.8516Z" fill="white"/>
<path d="M59.3926 45.7251V52.8621H58.7227V45.7251H59.3926Z" fill="white"/>
<path d="M74.5037 51.4327C74.6219 51.6795 74.7845 51.8762 74.9914 52.023C75.1983 52.1697 75.443 52.2748 75.7238 52.3381C76.0062 52.4015 76.3084 52.4315 76.6302 52.4315C76.8141 52.4315 77.0145 52.4048 77.2312 52.3515C77.448 52.2981 77.65 52.2131 77.8372 52.0964C78.0244 51.9796 78.1804 51.8296 78.3052 51.6478C78.43 51.4644 78.4924 51.2426 78.4924 50.9825C78.4924 50.784 78.4481 50.6089 78.3594 50.4639C78.2707 50.3188 78.1558 50.1937 78.0145 50.0937C77.8733 49.9953 77.7173 49.9119 77.5465 49.8502C77.3758 49.7868 77.2083 49.7352 77.044 49.6951L75.4791 49.3049C75.2755 49.2532 75.0768 49.1865 74.883 49.1065C74.6892 49.0248 74.5201 48.9197 74.3756 48.7863C74.2311 48.6529 74.1145 48.4895 74.0258 48.2961C73.9371 48.1027 73.8928 47.8659 73.8928 47.5857C73.8928 47.4123 73.9256 47.2089 73.9913 46.9754C74.057 46.742 74.1802 46.5219 74.3608 46.3151C74.5414 46.1083 74.7894 45.9332 75.1047 45.7898C75.42 45.6464 75.8239 45.5747 76.3166 45.5747C76.6647 45.5747 76.9964 45.6214 77.3101 45.7148C77.6254 45.8082 77.9012 45.9482 78.1377 46.135C78.3742 46.3218 78.563 46.5535 78.7042 46.8287C78.8455 47.1055 78.9161 47.4273 78.9161 47.7942H78.2461C78.2329 47.5207 78.1722 47.2839 78.0638 47.0788C77.9554 46.8754 77.8142 46.7053 77.6401 46.5685C77.4661 46.4318 77.2657 46.3284 77.0391 46.2584C76.8125 46.1884 76.5744 46.1533 76.3248 46.1533C76.0949 46.1533 75.8732 46.1783 75.6597 46.2284C75.4463 46.2784 75.2591 46.3584 75.0998 46.4685C74.9388 46.5786 74.8091 46.7236 74.7106 46.9037C74.6121 47.0838 74.5628 47.3073 74.5628 47.5724C74.5628 47.7391 74.5907 47.8842 74.6465 48.0076C74.7024 48.131 74.7796 48.2344 74.8781 48.3228C74.9766 48.4095 75.0899 48.4795 75.218 48.5329C75.3461 48.5862 75.4824 48.6296 75.6269 48.6629L77.3396 49.0932C77.5892 49.1599 77.8241 49.2416 78.0441 49.3383C78.2641 49.435 78.4579 49.5551 78.6254 49.6985C78.7929 49.8419 78.9243 50.017 79.0195 50.2237C79.1148 50.4305 79.1624 50.6806 79.1624 50.9725C79.1624 51.0525 79.1542 51.1592 79.1378 51.2926C79.1213 51.426 79.0819 51.5661 79.0195 51.7162C78.9571 51.8662 78.8684 52.018 78.7535 52.1714C78.6385 52.3248 78.4809 52.4632 78.2806 52.5866C78.0802 52.71 77.8323 52.81 77.5367 52.8868C77.2411 52.9635 76.8864 53.0018 76.4726 53.0018C76.0588 53.0018 75.6762 52.9535 75.3215 52.8567C74.9668 52.76 74.6646 52.6116 74.4166 52.4132C74.167 52.2131 73.9749 51.9563 73.8403 51.6428C73.7056 51.3293 73.6481 50.9524 73.6678 50.5139H74.3378C74.3313 50.8807 74.3871 51.1876 74.5053 51.4327H74.5037Z" fill="white"/>
<path d="M98.1993 45.7251V46.3054H95.7476V52.8621H95.0776V46.3054H92.6357V45.7251H98.1976H98.1993Z" fill="white"/>
<path d="M112.505 51.4327C112.623 51.6795 112.785 51.8762 112.992 52.023C113.199 52.1697 113.444 52.2748 113.725 52.3381C114.007 52.4015 114.309 52.4315 114.631 52.4315C114.815 52.4315 115.015 52.4048 115.232 52.3515C115.449 52.2981 115.651 52.2131 115.838 52.0964C116.025 51.9796 116.181 51.8296 116.306 51.6478C116.431 51.4644 116.493 51.2426 116.493 50.9825C116.493 50.784 116.449 50.6089 116.36 50.4639C116.272 50.3188 116.157 50.1937 116.016 50.0937C115.874 49.9953 115.718 49.9119 115.548 49.8502C115.377 49.7868 115.209 49.7352 115.045 49.6951L113.48 49.3049C113.276 49.2532 113.078 49.1865 112.884 49.1065C112.69 49.0248 112.521 48.9197 112.377 48.7863C112.232 48.6529 112.115 48.4895 112.027 48.2961C111.938 48.1027 111.894 47.8659 111.894 47.5857C111.894 47.4123 111.927 47.2089 111.992 46.9754C112.058 46.742 112.181 46.5219 112.362 46.3151C112.542 46.1083 112.79 45.9332 113.106 45.7898C113.421 45.6464 113.825 45.5747 114.318 45.5747C114.666 45.5747 114.997 45.6214 115.311 45.7148C115.626 45.8082 115.902 45.9482 116.139 46.135C116.375 46.3218 116.564 46.5535 116.705 46.8287C116.846 47.1055 116.917 47.4273 116.917 47.7942H116.247C116.234 47.5207 116.173 47.2839 116.065 47.0788C115.956 46.8754 115.815 46.7053 115.641 46.5685C115.467 46.4318 115.267 46.3284 115.04 46.2584C114.813 46.1884 114.575 46.1533 114.326 46.1533C114.096 46.1533 113.874 46.1783 113.661 46.2284C113.447 46.2784 113.26 46.3584 113.101 46.4685C112.94 46.5786 112.81 46.7236 112.712 46.9037C112.613 47.0838 112.564 47.3073 112.564 47.5724C112.564 47.7391 112.592 47.8842 112.648 48.0076C112.703 48.131 112.781 48.2344 112.879 48.3228C112.978 48.4095 113.091 48.4795 113.219 48.5329C113.347 48.5862 113.483 48.6296 113.628 48.6629L115.341 49.0932C115.59 49.1599 115.825 49.2416 116.045 49.3383C116.265 49.435 116.459 49.5551 116.626 49.6985C116.794 49.8419 116.925 50.017 117.02 50.2237C117.116 50.4305 117.163 50.6806 117.163 50.9725C117.163 51.0525 117.155 51.1592 117.139 51.2926C117.122 51.426 117.083 51.5661 117.02 51.7162C116.958 51.8662 116.869 52.018 116.754 52.1714C116.64 52.3248 116.482 52.4632 116.282 52.5866C116.081 52.71 115.833 52.81 115.538 52.8868C115.242 52.9635 114.887 53.0018 114.474 53.0018C114.06 53.0018 113.677 52.9535 113.322 52.8567C112.968 52.76 112.666 52.6116 112.418 52.4132C112.168 52.2131 111.976 51.9563 111.841 51.6428C111.707 51.3293 111.649 50.9524 111.669 50.5139H112.339C112.332 50.8807 112.388 51.1876 112.506 51.4327H112.505Z" fill="white"/>
<path d="M148.022 45.7251L152.117 51.7632H152.137V45.7251H152.807V52.8621H152.06L147.964 46.824H147.944V52.8621H147.274V45.7251H148.022Z" fill="white"/>
<path d="M172.23 45.7251V46.3054H168.046V48.8834H171.964V49.4637H168.046V52.2818H172.28V52.8621H167.378V45.7251H172.23Z" fill="white"/>
<path d="M191.189 45.7251V46.3054H188.738V52.8621H188.068V46.3054H185.626V45.7251H191.188H191.189Z" fill="white"/>
<path d="M205.021 45.7251L206.616 51.9716H206.636L208.348 45.7251H209.186L210.908 51.9716H210.928L212.532 45.7251H213.202L211.263 52.8621H210.555L208.774 46.4738H208.754L206.982 52.8621H206.253L204.304 45.7251H205.023H205.021Z" fill="white"/>
<path d="M226.933 47.8842C227.071 47.4373 227.278 47.0421 227.554 46.6986C227.83 46.3551 228.177 46.0833 228.594 45.8799C229.011 45.6764 229.494 45.5747 230.045 45.5747C230.597 45.5747 231.08 45.6764 231.492 45.8799C231.906 46.0833 232.249 46.3568 232.525 46.6986C232.801 47.0421 233.008 47.4373 233.146 47.8842C233.284 48.3311 233.353 48.7997 233.353 49.2933C233.353 49.7868 233.284 50.2571 233.146 50.7023C233.008 51.1492 232.801 51.5427 232.525 51.8829C232.249 52.2231 231.904 52.4932 231.492 52.6983C231.078 52.9001 230.595 53.0035 230.045 53.0035C229.495 53.0035 229.011 52.9018 228.594 52.6983C228.177 52.4949 227.83 52.2231 227.554 51.8829C227.278 51.5427 227.071 51.1492 226.933 50.7023C226.796 50.2571 226.727 49.7868 226.727 49.2933C226.727 48.7997 226.796 48.3311 226.933 47.8842ZM227.549 50.4372C227.651 50.814 227.809 51.1509 228.022 51.4477C228.236 51.7445 228.51 51.983 228.845 52.1631C229.18 52.3431 229.581 52.4315 230.045 52.4315C230.51 52.4315 230.911 52.3415 231.242 52.1631C231.574 51.983 231.847 51.7445 232.06 51.4477C232.274 51.1509 232.431 50.814 232.533 50.4372C232.635 50.0603 232.686 49.6801 232.686 49.2933C232.686 48.9064 232.635 48.5162 232.533 48.1443C232.431 47.7708 232.274 47.4357 232.06 47.1388C231.847 46.842 231.574 46.6036 231.242 46.4235C230.911 46.2434 230.512 46.155 230.045 46.155C229.579 46.155 229.178 46.2451 228.845 46.4235C228.51 46.6036 228.236 46.842 228.022 47.1388C227.809 47.4357 227.651 47.7708 227.549 48.1443C227.447 48.5179 227.397 48.9014 227.397 49.2933C227.397 49.6851 227.447 50.062 227.549 50.4372Z" fill="white"/>
<path d="M250.777 45.7251C251.066 45.7251 251.34 45.7618 251.6 45.8352C251.859 45.9085 252.086 46.0202 252.28 46.1703C252.473 46.3204 252.628 46.5138 252.743 46.7506C252.858 46.9874 252.915 47.2659 252.915 47.586C252.915 48.0379 252.8 48.4315 252.57 48.765C252.34 49.0985 251.999 49.3119 251.547 49.4053V49.4253C251.777 49.4587 251.968 49.5204 252.119 49.6104C252.27 49.7004 252.393 49.8155 252.488 49.9556C252.583 50.0956 252.652 50.2574 252.695 50.4408C252.738 50.6243 252.766 50.8227 252.779 51.0345C252.785 51.1545 252.792 51.3013 252.799 51.4747C252.805 51.6481 252.818 51.8232 252.838 51.9983C252.858 52.175 252.889 52.3418 252.932 52.4985C252.974 52.6553 253.032 52.777 253.104 52.8637H252.365C252.326 52.797 252.294 52.7153 252.271 52.6203C252.248 52.5235 252.232 52.4235 252.222 52.3201C252.212 52.2167 252.204 52.115 252.198 52.015C252.191 51.9149 252.184 51.8282 252.178 51.7548C252.165 51.5014 252.143 51.2496 252.114 50.9994C252.084 50.7493 252.022 50.5259 251.927 50.3308C251.831 50.1357 251.693 49.9756 251.513 49.8555C251.332 49.7355 251.084 49.6821 250.769 49.6954H248.229V52.8637H247.559V45.7268H250.777V45.7251ZM250.728 49.1135C250.932 49.1135 251.124 49.0818 251.309 49.0184C251.493 48.9551 251.654 48.8634 251.792 48.7433C251.93 48.6249 252.04 48.4782 252.122 48.3081C252.204 48.1397 252.245 47.9429 252.245 47.7228C252.245 47.2826 252.12 46.9374 251.871 46.6822C251.621 46.4305 251.24 46.3037 250.73 46.3037H248.229V49.1118H250.73L250.728 49.1135Z" fill="white"/>
<path d="M267.956 45.7251V49.5637L272.042 45.7251H272.947L269.807 48.6749L273.094 52.8621H272.227L269.304 49.1435L267.956 50.4125V52.8621H267.286V45.7251H267.956Z" fill="white"/>
</g>
<defs>
<clipPath id="clip0_499_1329">
<rect width="274" height="53" fill="white"/>
</clipPath>
</defs>
</svg>
