<svg width="959" height="162" viewBox="0 0 959 162" fill="none" xmlns="http://www.w3.org/2000/svg">
<g clip-path="url(#clip0_9774_108421)">
<path fill-rule="evenodd" clip-rule="evenodd" d="M581.496 76.0101C585.772 78.5582 592.383 79.7582 597.287 80.665C600.468 81.2531 603.435 82.099 606.184 83.1984C612.325 85.6549 615.847 90.0131 615.847 96.8689C615.847 99.3046 615.237 101.622 614.02 103.823C612.803 106.022 611.152 107.928 609.071 109.537C606.989 111.147 604.533 112.425 601.706 113.367C598.878 114.31 595.854 114.781 592.632 114.781C589.804 114.781 587.153 114.427 584.678 113.721C582.204 113.014 579.964 112.011 577.961 110.716C575.958 109.42 574.268 107.887 572.894 106.12C571.52 104.353 570.557 102.448 570.007 100.405L578.45 98.1832C580.138 102.126 583.856 105.012 587.035 106.12C588.724 106.708 590.591 107.004 592.632 107.004C594.911 107.004 596.915 106.709 598.642 106.12C600.37 105.531 601.825 104.764 603.002 103.823C604.181 102.88 605.086 101.8 605.714 100.582C606.341 99.3652 606.655 98.1266 606.655 96.8693C606.655 94.6698 605.732 92.9997 603.887 91.861C602.041 90.7227 599.742 89.818 596.993 89.1506C594.243 88.4836 591.277 87.8933 588.096 87.3831C584.914 86.8729 581.948 86.067 579.199 84.9677C573.323 82.6175 569.535 78.8546 569.535 72.2403C569.535 69.7264 570.145 67.369 571.362 65.1699C572.579 62.9705 574.23 61.0454 576.311 59.3954C578.393 57.7455 580.849 56.4496 583.677 55.5067C586.505 54.5638 589.49 54.0925 592.632 54.0925C595.461 54.0925 598.152 54.4661 600.705 55.2125C603.258 55.9585 605.536 56.9796 607.539 58.2762C609.542 59.5725 611.232 61.1247 612.607 62.9315C613.981 64.738 614.904 66.663 615.375 68.7049L606.928 71.014C605.413 66.9335 602.075 64.0951 598.23 62.7541C596.542 62.1653 594.675 61.87 592.632 61.87C590.825 61.87 589.078 62.1253 587.389 62.6362C585.699 63.1468 584.206 63.8542 582.911 64.7578C579.154 67.3759 576.503 73.0224 581.497 76.0104L581.496 76.0101ZM432.718 38.5942H441.909V48.8402H432.718V38.5942ZM275.988 83.1998C276.146 80.4497 275.712 77.876 274.692 75.4807C273.671 73.0848 272.276 70.9819 270.509 69.1762C268.741 67.3698 266.659 65.9351 264.263 64.8746C261.867 63.8153 259.372 63.2838 256.78 63.2838C254.108 63.2838 251.575 63.7749 249.179 64.7571C246.783 65.7389 244.7 67.1145 242.933 68.8813C241.167 70.6488 239.79 72.7509 238.808 75.1858C237.827 77.6207 237.374 80.2922 237.453 83.1994H275.987L275.988 83.1998ZM227.822 85.81C227.98 89.4445 228.759 92.8962 230.148 96.1619C231.719 99.8537 233.88 103.076 236.629 105.825C239.379 108.574 242.602 110.756 246.292 112.365C249.985 113.975 253.913 114.781 258.077 114.781C262.24 114.781 266.169 113.975 269.861 112.365C273.552 110.756 276.775 108.575 279.525 105.825C279.83 105.52 280.127 105.209 280.419 104.892L273.988 98.4619C273.704 98.7832 273.407 99.0973 273.102 99.4027C271.178 101.328 268.938 102.841 266.385 103.941C263.832 105.04 261.063 105.59 258.077 105.59C255.17 105.59 252.42 105.04 249.828 103.941C247.236 102.841 244.996 101.328 243.111 99.4027C240.759 97.0016 239.136 94.2664 238.161 90.9769H285.18C285.652 88.856 285.888 86.6959 285.888 84.496C285.888 80.3322 285.121 76.4038 283.59 72.7116C282.059 69.0197 279.995 65.7984 277.403 63.0487C274.811 60.2994 271.746 58.1179 268.211 56.5087C264.677 54.8984 260.905 54.0925 256.898 54.0925C252.892 54.0925 249.12 54.8984 245.585 56.5087C242.051 58.1179 238.966 60.2997 236.335 63.0487C233.704 65.798 231.621 69.0197 230.089 72.7116C228.587 76.3313 227.886 80.0048 227.801 83.8755C227.787 84.5281 227.794 85.1566 227.823 85.8103L227.822 85.81ZM324.001 105.59C326.986 105.59 329.756 105.039 332.309 103.94C334.862 102.841 337.102 101.347 339.026 99.4625C340.95 97.5775 342.463 95.3369 343.563 92.7448C344.662 90.1523 345.213 87.4029 345.213 84.496C345.213 81.5105 344.662 78.7414 343.563 76.1882C342.464 73.635 340.95 71.3959 339.026 69.4715C337.1 67.5461 334.862 66.0328 332.309 64.9334C329.756 63.834 326.986 63.2842 324.001 63.2842C321.093 63.2842 318.344 63.834 315.752 64.9334C313.159 66.0328 310.92 67.5461 309.035 69.4715C307.15 71.3944 305.657 73.6354 304.557 76.1882C303.458 78.7417 302.907 81.5105 302.907 84.496C302.907 87.4029 303.458 90.153 304.557 92.7448C305.657 95.3369 307.15 97.5775 309.035 99.4625C310.919 101.347 313.16 102.841 315.752 103.94C318.344 105.039 321.093 105.59 324.001 105.59ZM354.404 84.8555L354.402 84.857L354.404 84.4957C354.428 80.3318 353.598 76.4034 351.988 72.7116C350.378 69.0194 348.197 65.797 345.448 63.0483C342.699 60.299 339.476 58.1183 335.785 56.5087C332.093 54.8988 328.164 54.0922 324.001 54.0922C319.836 54.0922 315.909 54.8988 312.216 56.5087C308.525 58.1183 305.303 60.2994 302.553 63.0483C299.804 65.797 297.643 69.0194 296.072 72.7116C294.502 76.4034 293.714 80.3318 293.714 84.4957C293.714 88.6592 294.502 92.5876 296.072 96.2798C297.642 99.9716 299.804 103.194 302.553 105.943C305.303 108.693 308.525 110.854 312.216 112.424C315.908 113.995 319.836 114.781 324.001 114.781C328.164 114.781 332.093 113.995 335.785 112.424C339.371 110.898 342.514 108.816 345.211 106.176V119.878C345.211 122.813 346.588 128.549 354.404 128.549V84.8555ZM550.394 55.6246H559.586V113.367C554.777 112.709 552.114 109.913 552.279 104.294C549.765 107.672 547.034 110.265 544.089 112.071C541.144 113.877 537.392 114.781 532.835 114.781C529.144 114.781 525.667 114.074 522.406 112.66C519.147 111.247 516.317 109.341 513.922 106.945C511.526 104.549 509.62 101.719 508.206 98.4605C506.793 95.1999 506.086 91.7233 506.086 88.0314V55.625H515.277V86.1456C515.277 88.737 515.69 91.2134 516.514 93.5694C517.339 95.9261 518.519 97.9892 520.05 99.7564C521.582 101.523 523.428 102.939 525.588 103.999C527.749 105.059 530.164 105.59 532.835 105.59C535.978 105.59 538.649 104.901 540.848 103.527C543.047 102.153 544.855 100.423 546.268 98.3422C547.682 96.2614 548.724 94.0208 549.392 91.6248C550.059 89.2303 550.393 87.0092 550.393 84.9673V55.625L550.394 55.6246ZM408.628 55.6246H417.819V113.367C413.011 112.709 410.347 109.913 410.513 104.294C407.998 107.672 405.268 110.265 402.323 112.071C399.378 113.877 395.626 114.781 391.069 114.781C387.377 114.781 383.9 114.074 380.64 112.66C377.381 111.247 374.551 109.341 372.156 106.945C369.759 104.548 367.853 101.719 366.44 98.4605C365.027 95.1999 364.319 91.7233 364.319 88.0314V55.625H373.511V86.1456C373.511 88.737 373.924 91.2142 374.748 93.5694C375.572 95.9268 376.753 97.9896 378.284 99.7564C379.815 101.524 381.661 102.939 383.822 103.999C385.982 105.059 388.398 105.59 391.068 105.59C394.212 105.59 396.883 104.901 399.082 103.527C401.28 102.153 403.088 100.423 404.502 98.3422C405.916 96.2614 406.957 94.0208 407.625 91.6248C408.293 89.2289 408.627 87.0092 408.627 84.9673V55.625L408.628 55.6246ZM432.718 55.6246H441.911V113.367H432.718V55.6246ZM464.115 65.9946C465.293 64.4232 466.708 62.9106 468.357 61.4575C470.006 60.0044 471.815 58.746 473.778 57.6867C475.742 56.6266 477.844 55.7807 480.082 55.153C482.321 54.5249 484.619 54.2101 486.976 54.2101C491.061 54.2101 494.988 54.9958 498.759 56.5675V66.5942C494.9 64.535 490.773 63.4021 486.387 63.4021C483.323 63.4021 480.514 64.1293 477.961 65.5821C475.408 67.0352 473.246 68.8239 471.48 70.9441C469.713 73.0649 468.356 75.3243 467.414 77.7195C466.472 80.1155 466 82.2576 466 84.142V113.367H456.808V55.6242C461.651 56.1741 464.078 59.1171 464.114 65.9946H464.115Z" fill="#376E00"/>
<path fill-rule="evenodd" clip-rule="evenodd" d="M126.691 28.0796C131.873 29.003 136.873 30.3465 141.635 32.0682C138.313 32.383 135.021 32.8268 131.771 33.3983C124.594 34.6603 117.649 36.5288 111.085 38.977L110.01 39.3776L108.933 38.977C102.36 36.5306 95.4013 34.661 88.2108 33.3983C84.978 32.8304 81.7029 32.388 78.398 32.0736C83.1546 30.3533 88.1477 29.0099 93.3237 28.0857C99.0272 29.2785 104.613 30.8567 110.008 32.8052C115.402 30.8527 120.987 29.2727 126.691 28.0796ZM51.9048 125.892C54.3697 126.478 56.7512 126.906 58.9118 127.187C61.2576 127.493 63.4398 127.64 65.2484 127.64C75.0663 127.64 83.8927 125.34 90.2261 121.621C94.9333 118.857 98.1935 115.348 99.2825 111.519C99.3088 111.353 99.3221 111.179 99.3221 111C99.3221 110.131 98.787 109.332 97.8957 108.635C96.6128 107.631 94.7242 106.855 92.5128 106.323C90.3198 105.796 87.8146 105.528 85.2455 105.528C79.5348 105.528 76.2511 107.331 72.6534 109.306C70.5859 110.441 68.4272 111.627 65.5964 112.685C53.7798 117.103 42.1774 115.625 35.49 111.616C33.12 110.195 31.2836 108.421 30.1539 106.421C28.8927 104.186 28.5112 101.731 29.2114 99.2003C30.4002 94.9066 34.8709 90.5668 43.8097 87.2445C47.0253 86.0496 50.5051 85.119 54.1429 84.4985C57.7107 83.8895 61.4462 83.5646 65.2484 83.5646C76.1581 83.5646 86.0986 86.1978 93.3489 90.4547C101.09 94.9996 105.879 101.442 105.879 108.7C105.879 115.959 101.09 122.401 93.3489 126.946C86.0986 131.203 76.1585 133.837 65.2484 133.837C63.2844 133.837 60.8332 133.666 58.1135 133.311C55.6497 132.991 53.0424 132.529 50.4766 131.919L51.9048 125.892ZM96.7224 101.143C95.1139 99.166 92.9044 97.3516 90.2261 95.7796C83.8934 92.0614 75.0663 89.7609 65.2484 89.7609C61.7664 89.7609 58.3825 90.0523 55.1835 90.5982C51.8735 91.1628 48.7693 91.9864 45.9641 93.0288C39.127 95.5701 35.8581 98.345 35.1658 100.846C34.9253 101.716 35.0703 102.584 35.5278 103.395C36.1174 104.439 37.1969 105.438 38.6608 106.315C44.0062 109.519 53.5112 110.613 63.4423 106.901C65.7604 106.034 67.7616 104.935 69.6765 103.884C74.0113 101.503 77.9678 99.3315 85.2459 99.3315C88.2199 99.3315 91.2158 99.6658 93.9414 100.321C94.9059 100.553 95.8372 100.827 96.7224 101.143ZM169.571 131.919C167.006 132.529 164.399 132.991 161.935 133.311C159.215 133.666 156.763 133.837 154.8 133.837C143.889 133.837 133.949 131.203 126.699 126.946C118.958 122.401 114.169 115.959 114.169 108.7C114.169 101.442 118.958 94.9993 126.699 90.4547C133.949 86.1978 143.89 83.5646 154.8 83.5646C158.602 83.5646 162.338 83.8895 165.905 84.4985C169.543 85.119 173.023 86.0496 176.238 87.2445C185.176 90.5668 189.648 94.9059 190.837 99.201C191.536 101.731 191.156 104.186 189.894 106.421C188.764 108.421 186.928 110.195 184.558 111.616C177.87 115.625 166.268 117.103 154.452 112.685C151.622 111.627 149.462 110.442 147.395 109.307C143.797 107.331 140.513 105.528 134.802 105.528C132.233 105.528 129.725 105.796 127.531 106.325C125.321 106.856 123.433 107.633 122.152 108.636C121.261 109.332 120.727 110.13 120.727 110.998C120.727 111.182 120.741 111.359 120.767 111.528C121.859 115.353 125.118 118.859 129.822 121.621C136.155 125.34 144.982 127.64 154.8 127.64C156.609 127.64 158.79 127.493 161.136 127.187C163.297 126.906 165.678 126.478 168.143 125.892L169.571 131.919ZM129.821 95.7796C127.142 97.352 124.933 99.1664 123.325 101.143C124.209 100.828 125.138 100.553 126.102 100.322C128.829 99.6654 131.826 99.3315 134.802 99.3315C142.081 99.3315 146.037 101.504 150.372 103.884C152.287 104.936 154.288 106.034 156.605 106.901C166.537 110.614 176.041 109.519 181.387 106.315C182.85 105.438 183.93 104.439 184.519 103.395C184.977 102.584 185.122 101.716 184.881 100.847C184.189 98.345 180.92 95.5701 174.083 93.0288C171.278 91.9864 168.174 91.1628 164.864 90.5982C161.665 90.0523 158.282 89.7609 154.8 89.7609C144.982 89.7609 136.154 92.061 129.821 95.7796ZM157.047 39.4375C160.44 41.5068 163.635 43.7939 166.603 46.2746C162.677 45.8264 158.685 45.6 154.663 45.6C146.907 45.6 139.268 46.4444 131.992 48.0789C124.712 49.7141 117.763 52.14 111.392 55.3011L110.026 55.9786L108.66 55.3011C102.289 52.14 95.3404 49.7137 88.0601 48.0789C80.7846 46.4451 73.1456 45.6 65.3887 45.6C61.3665 45.6 57.3736 45.8264 53.4438 46.275C56.4116 43.7942 59.6066 41.5072 62.9995 39.4379C63.796 39.4205 64.5922 39.4119 65.3887 39.4119C73.5469 39.4119 81.6424 40.3144 89.4141 42.0603C96.6618 43.6879 103.604 46.0521 110.026 49.1033C116.448 46.0518 123.39 43.6875 130.638 42.0603C138.409 40.3144 146.505 39.4119 154.663 39.4119C155.458 39.4119 156.253 39.4205 157.047 39.4375ZM176.205 55.9422C178.329 58.5328 180.246 61.2537 181.934 64.0885C179.437 63.2119 176.858 62.4558 174.216 61.8248C167.953 60.3296 161.353 59.5536 154.663 59.5536C146.612 59.5536 138.747 60.6663 131.469 62.7756C124.209 64.8788 117.51 67.9714 111.777 71.9337L110.025 73.1452L108.272 71.9337C102.539 67.9714 95.8419 64.8796 88.5819 62.776C81.3038 60.6663 73.4376 59.5536 65.3879 59.5536C59.1883 59.5536 53.0626 60.2203 47.2056 61.5111C44.0834 62.1987 41.042 63.0612 38.1109 64.091C39.7995 61.2555 41.7177 58.5343 43.8415 55.9432C44.5164 55.777 45.1947 55.6191 45.8761 55.4684C52.1684 54.082 58.7427 53.3659 65.3883 53.3659C73.9709 53.3659 82.4201 54.5706 90.2982 56.8537C97.4699 58.932 104.156 61.9088 110.025 65.6887C115.895 61.9088 122.581 58.9316 129.753 56.8533C137.63 54.5706 146.08 53.3659 154.663 53.3659C161.833 53.3659 168.913 54.1995 175.642 55.8055L176.205 55.9418V55.9422ZM187.187 75.2975C188.173 78.1142 188.95 81.0064 189.504 83.9619C185.582 81.152 180.966 78.8602 175.901 77.1695C169.399 74.9996 162.15 73.8292 154.664 73.8292C145.709 73.8292 137.152 75.499 129.807 78.5047C122.573 81.465 116.52 85.7074 112.449 90.9029L110.019 94.0023L107.59 90.9029C103.517 85.7056 97.4659 81.4628 90.2369 78.504C82.8943 75.4979 74.3409 73.8292 65.3887 73.8292C57.8142 73.8292 50.4766 75.0317 43.9049 77.2564C38.9287 78.9417 34.3978 81.2043 30.5444 83.9637C31.0968 81.0085 31.8742 78.1157 32.8603 75.2993C35.6959 73.791 38.7329 72.4872 41.9225 71.4077C49.144 68.9626 57.1594 67.6419 65.3883 67.6419C75.1006 67.6419 84.4555 69.4829 92.5575 72.7998C99.4635 75.627 105.464 79.5359 110.019 84.3066C114.574 79.5378 120.576 75.6278 127.485 72.8002C135.59 69.484 144.947 67.6419 154.663 67.6419C162.778 67.6419 170.697 68.9305 177.858 71.3208C181.145 72.418 184.272 73.7495 187.186 75.2978L187.187 75.2975Z" fill="#7DB300"/>
<path d="M706.512 67.9458L690.984 113.164L678.991 81.576L667.068 113.164L651.472 67.9458H657.156L667.692 99.2756L678.991 67.9458L690.36 99.2756L700.828 67.9458H706.512Z" fill="#7DB300"/>
<path d="M744.739 67.9458V72.9844H722.071V88.0356H741.273V93.0742H722.071V108.125H744.739V113.164H716.664V67.9458H744.739Z" fill="#7DB300"/>
<path d="M788.026 113.164L785.115 106.705H761.754L758.774 113.164H753.02L773.538 67.9463L793.78 113.164H788.026ZM764.25 101.666H782.689L773.538 80.7364L764.25 101.666Z" fill="#7DB300"/>
<path d="M809.062 67.9458V108.125H831.73V113.164H803.656V67.9458H809.062Z" fill="#7DB300"/>
<path d="M865.036 67.9458V72.9844H852.35V113.164H846.943V72.9844H834.257V67.9458H865.036Z" fill="#7DB300"/>
<path d="M876.09 67.9458H881.497V88.0356H904.095V67.9458H909.502V113.164H904.095V93.0742H881.497V113.164H876.09V67.9458Z" fill="#7DB300"/>
<path d="M706.512 67.9458L690.984 113.164L678.991 81.576L667.068 113.164L651.472 67.9458H657.156L667.692 99.2756L678.991 67.9458L690.36 99.2756L700.828 67.9458H706.512Z" stroke="#7DB300" stroke-width="0.288094" stroke-miterlimit="22.9256"/>
<path d="M744.739 67.9458V72.9844H722.071V88.0356H741.273V93.0742H722.071V108.125H744.739V113.164H716.664V67.9458H744.739Z" stroke="#7DB300" stroke-width="0.288094" stroke-miterlimit="22.9256"/>
<path d="M788.026 113.164L785.115 106.705H761.754L758.774 113.164H753.02L773.538 67.9463L793.78 113.164H788.026ZM764.25 101.666H782.689L773.538 80.7364L764.25 101.666Z" stroke="#7DB300" stroke-width="0.288094" stroke-miterlimit="22.9256"/>
<path d="M809.062 67.9458V108.125H831.73V113.164H803.656V67.9458H809.062Z" stroke="#7DB300" stroke-width="0.288094" stroke-miterlimit="22.9256"/>
<path d="M865.036 67.9458V72.9844H852.35V113.164H846.943V72.9844H834.257V67.9458H865.036Z" stroke="#7DB300" stroke-width="0.288094" stroke-miterlimit="22.9256"/>
<path d="M876.09 67.9458H881.497V88.0356H904.095V67.9458H909.502V113.164H904.095V93.0742H881.497V113.164H876.09V67.9458Z" stroke="#7DB300" stroke-width="0.288094" stroke-miterlimit="22.9256"/>
</g>
<defs>
<clipPath id="clip0_9774_108421">
<rect width="958.991" height="161.917" fill="white"/>
</clipPath>
</defs>
</svg>
